<svg xmlns="http://www.w3.org/2000/svg" width="120" height="120" viewBox="0 0 483 516">
<g>
<path d="M 158.97,462.95 L 158.96,465.63 L 158.95,470.84 L 158.94,473.23 L 158.91,477.83 L 158.90,479.85 L 158.87,483.72 L 158.85,485.33 L 158.81,488.33 L 158.79,489.47 L 158.77,490.54 L 158.76,490.98 L 158.74,491.79 L 158.73,492.09 L 158.71,492.61 L 158.70,492.77 L 158.68,493.00 L 158.66,493.00 L 158.35,492.88 L 158.29,492.85 L 158.33,492.68 L 158.35,492.53 L 158.40,492.01 L 158.42,491.71 L 158.47,490.91 L 158.50,490.48 L 158.54,489.41 L 158.58,488.28 L 158.67,485.29 L 158.71,483.68 L 158.78,479.83 L 158.81,477.80 L 158.86,473.21 L 158.89,470.83 L 158.93,465.62 L 158.95,462.95 L 158.97,457.24 L 158.98,454.33 L 158.99,448.25 L 158.98,457.24 M 125.92,474.58 L 124.87,473.87 L 124.79,473.80 M 123.31,472.70 L 122.47,472.07 L 122.39,472.01 M 121.78,471.54 L 117.77,468.45 L 117.71,468.39 M 158.59,409.60 L 158.69,412.47 L 158.74,414.07 L 158.82,417.38 L 158.84,419.21 L 158.90,423.02 L 158.92,425.12 L 158.95,429.48 L 158.96,431.88 L 158.97,436.84 L 158.98,439.56 L 158.98,445.18 L 158.98,445.18 L 158.98,439.57 L 158.97,436.84 L 158.96,431.89 L 158.95,429.49 L 158.92,425.13 L 158.90,423.03 L 158.84,419.22 L 158.82,417.39 L 158.74,414.08 L 158.69,412.48 L 158.59,409.62 L 158.54,408.52 M 158.53,408.22 L 158.53,408.23 L 158.45,406.97 M 158.30,404.55 L 158.30,404.55 L 158.30,404.53 M 154.84,388.75 L 154.85,388.75 L 154.39,387.79 M 110.62,225.41 L 110.81,225.74 L 110.94,226.02 L 111.20,226.65 L 111.36,227.05 L 113.39,231.58 L 114.94,234.46 L 115.80,235.82 L 117.58,238.49 L 118.54,239.73 L 120.52,242.16 L 121.58,243.27 L 123.73,245.43 L 124.86,246.40 L 127.15,248.25 L 128.35,249.05 L 130.75,250.58 L 131.99,251.20 L 134.49,252.36 L 135.76,252.79 L 137.71,253.32 L 138.72,253.27 L 139.26,252.95 L 139.80,252.57 L 140.11,252.29 L 140.76,251.65 L 141.15,251.23 L 141.97,250.30 L 142.46,249.72 L 143.51,248.46 L 144.15,247.70 L 146.19,245.25 L 147.43,243.78 L 147.95,243.17 L 148.92,242.06 L 149.25,241.68 L 149.81,241.07 L 149.89,241.00 L 150.18,240.70 L 150.51,240.31 L 150.67,240.13 L 156.48,251.81 L 156.91,252.68 L 157.84,254.67 L 158.31,255.70 L 159.31,257.98 L 160.31,260.33 L 162.44,265.66 L 163.51,268.40 L 165.64,274.21 L 168.65,283.00 L 169.52,285.68 L 171.24,290.91 L 172.08,293.45 L 173.60,298.02 L 173.96,299.10 L 174.61,301.04 L 174.92,301.96 L 175.47,303.56 L 175.72,304.31 L 176.13,305.50 L 176.58,306.75 L 177.19,308.38 L 176.79,307.66 L 176.32,307.47 L 176.14,307.75 L 175.24,308.21 L 174.07,308.55 L 173.27,308.72 L 171.52,309.06 L 170.51,309.21 L 168.39,309.51 L 167.25,309.63 L 159.01,310.50 L 141.75,327.70 L 134.95,334.54 L 132.87,336.67 L 131.90,337.66 L 130.03,339.59 L 129.19,340.47 L 127.57,342.15 L 126.88,342.88 L 125.58,344.27 L 125.07,344.83 L 124.13,345.87 L 123.82,346.24 L 123.34,346.80 L 123.56,345.89 L 123.62,345.37 L 123.42,343.93 L 123.35,343.52 L 123.10,342.56 L 122.97,342.05 L 122.60,340.85 L 122.40,340.21 L 121.91,338.74 L 121.01,336.17 L 120.65,335.17 L 120.00,333.36 L 119.69,332.49 L 119.12,330.96 L 118.85,330.23 L 118.36,328.99 L 118.13,328.42 L 117.71,327.51 L 117.51,327.10 L 117.15,326.54 L 116.98,326.30 L 116.68,326.12 L 116.54,326.08 L 116.29,326.29 L 116.17,326.45 L 115.97,327.09 L 115.87,327.47 L 115.70,328.56 L 115.62,329.16 L 115.48,330.73 L 115.42,331.57 L 115.31,333.64 L 115.25,334.73 L 115.16,337.32 L 115.11,338.69 L 115.03,341.83 L 114.99,343.47 L 114.91,347.19 L 114.87,349.12 L 114.79,353.43 L 114.66,360.61 L 114.61,363.15 L 114.50,368.69 L 114.44,371.53 L 114.31,377.53 L 114.18,383.61 L 114.05,388.73 L 114.16,383.09 L 114.27,374.13 L 114.43,356.23 L 114.45,347.46 L 114.45,338.74 L 114.43,334.46 L 114.39,325.97 L 114.35,321.84 L 114.27,313.66 L 114.21,309.72 L 114.08,301.93 L 114.00,298.20 L 113.83,290.88 L 113.72,287.42 L 113.51,280.64 L 113.39,277.48 L 113.13,271.32 L 112.99,268.50 L 112.69,263.04 L 112.53,260.60 L 112.19,255.92 L 112.01,253.90 L 111.63,250.07 L 111.43,248.50 L 111.24,246.47 L 111.08,244.42 L 111.00,243.15 L 110.83,240.47 L 110.74,239.01 L 110.58,236.01 L 110.51,234.50 L 110.35,231.13 L 110.27,229.31 L 110.25,228.60 L 110.22,227.30 L 110.22,226.82 L 110.24,226.00 L 110.27,225.75 L 110.34,225.35 L 110.40,225.30 L 110.53,225.29 M 152.04,382.91 L 152.92,384.69 L 152.93,384.71 L 152.03,382.90 M 146.57,374.19 L 147.54,375.54 L 149.41,378.28 L 150.30,379.79 L 151.87,382.61 L 149.83,379.12 L 148.71,377.31 L 146.30,373.96 L 145.50,372.89 M 135.36,354.08 L 136.33,354.22 L 137.01,354.35 L 139.42,354.89 L 140.40,355.27 L 140.67,355.56 L 141.08,356.25 L 141.17,356.82 L 141.30,358.12 L 141.34,359.11 L 141.32,360.77 L 141.17,361.57 L 141.00,361.86 L 140.60,362.35 L 140.29,362.53 L 139.57,362.84 L 139.07,362.96 L 137.73,363.37 L 137.35,363.70 L 137.45,363.99 L 137.84,364.67 L 138.36,365.23 L 138.93,365.84 L 139.30,366.22 L 140.11,367.04 L 140.60,367.53 L 141.62,368.61 L 138.71,365.89 L 138.18,365.46 L 136.93,364.29 L 136.29,363.67 L 134.94,362.25 L 131.32,357.89 L 130.70,357.02 L 129.59,355.66 L 129.06,355.04 L 128.78,354.78 L 129.46,355.31 L 130.24,356.24 L 131.63,357.79 L 132.34,358.42 L 132.61,358.56 L 133.11,358.72 L 133.32,358.64 L 133.71,358.37 L 133.89,358.09 L 134.38,356.65 L 134.40,355.59 L 134.24,355.18 L 134.09,354.46 L 134.22,354.17 L 134.43,354.10 L 134.94,354.04 M 124.77,353.00 L 124.75,352.99 L 125.32,352.99 L 125.36,353.00 M 122.41,349.14 L 122.38,350.50 L 122.58,351.07 L 122.78,351.46 L 122.59,351.13 L 122.36,350.58 L 122.35,349.27 L 123.09,347.22 L 123.17,347.10 M 233.96,308.83 L 233.83,308.90 L 233.96,308.83 M 235.59,307.25 L 235.06,307.81 L 234.44,308.39 L 235.06,307.81 L 235.59,307.25 L 236.60,305.82 L 238.34,303.13 L 236.60,305.82 M 167.59,221.35 L 167.50,221.39 L 167.58,221.35 Z" fill="rgba(30,122,232,1)"/>
<path d="M 148.00,59.27 L 149.84,59.33 L 153.08,59.44 L 154.62,59.49 L 157.35,59.63 L 158.66,59.70 L 161.00,59.86 L 162.13,59.95 L 164.19,60.17 L 166.20,60.40 L 169.89,61.06 L 175.85,62.47 L 177.34,62.86 L 180.17,63.50 L 181.54,63.79 L 183.96,64.22 L 185.10,64.41 L 186.91,64.59 L 188.68,64.55 L 189.27,64.40 L 189.62,64.17 L 189.49,64.35 L 189.04,64.49 L 187.76,65.48 L 187.23,66.58 L 187.11,67.30 L 186.98,68.82 L 187.04,69.70 L 187.27,71.51 L 187.50,72.48 L 188.05,74.43 L 188.43,75.40 L 189.27,77.34 L 189.78,78.25 L 190.87,80.02 L 191.49,80.80 L 192.79,82.26 L 193.51,82.83 L 194.98,83.96 L 195.52,84.30 L 196.49,84.83 L 196.87,84.87 L 197.58,84.81 L 197.92,84.58 L 198.37,84.18 L 196.73,85.87 L 195.40,87.28 L 193.09,89.95 L 192.55,90.59 L 191.62,91.79 L 190.46,93.41 L 190.09,93.98 L 189.47,95.85 L 189.18,96.89 L 188.73,99.53 L 188.52,100.93 L 188.24,104.13 L 188.13,105.79 L 188.02,109.35 L 187.97,112.96 L 188.39,120.35 L 188.55,122.14 L 189.00,125.50 L 189.88,130.00 L 190.52,132.54 L 192.15,137.14 L 193.02,139.37 L 195.15,143.42 L 196.28,145.38 L 198.98,148.99 L 203.75,154.03 L 205.54,155.67 L 209.09,158.32 L 210.01,158.94 L 212.00,160.10 L 213.03,160.67 L 215.31,161.75 L 216.50,162.28 L 219.19,163.34 L 220.60,163.87 L 223.81,164.95 L 225.49,165.50 L 229.35,166.67 L 235.98,168.56 L 237.80,169.06 L 241.81,170.13 L 243.85,170.67 L 248.11,171.77 L 248.82,171.95 L 247.20,171.54 L 244.41,170.83 L 238.91,169.40 L 236.42,168.74 L 233.99,168.08 L 232.88,167.77 L 230.73,167.17 L 229.78,166.90 L 227.97,166.37 L 227.22,166.14 L 225.83,165.70 L 225.31,165.52 L 224.77,165.81 L 224.12,166.34 L 223.66,166.76 L 222.67,167.69 L 222.06,168.29 L 220.79,169.56 L 220.06,170.30 L 218.56,171.85 L 217.74,172.71 L 216.07,174.47 L 215.19,175.41 L 211.56,179.32 L 209.70,181.36 L 206.00,185.45 L 204.27,187.40 L 202.57,189.33 L 201.79,190.24 L 200.25,192.01 L 199.56,192.82 L 198.25,194.38 L 197.69,195.06 L 196.65,196.35 L 196.25,196.88 L 195.54,197.83 L 195.33,198.16 L 195.00,198.72 L 195.00,198.83 L 195.21,199.15 L 195.55,199.35 L 195.82,199.44 L 197.16,199.79 L 198.17,199.93 L 200.42,200.21 L 201.85,200.31 L 204.89,200.50 L 206.22,200.55 L 205.91,200.54 L 204.18,200.49 L 201.13,200.35 L 199.68,200.27 L 197.34,200.08 L 194.81,199.73 L 194.44,199.65 L 193.93,199.64 L 193.71,199.65 L 193.48,199.82 L 193.39,199.92 L 193.41,200.25 L 193.45,200.43 L 193.71,200.90 L 194.02,201.40 L 195.26,202.76 L 195.97,203.48 L 197.88,205.18 L 198.70,205.88 L 196.43,204.14 L 194.00,201.93 L 191.61,199.77 L 189.95,198.29 L 189.36,197.76 L 187.22,195.86 L 176.99,208.01 L 173.09,212.79 L 170.87,215.66 L 170.02,216.84 L 169.22,217.96 L 168.90,218.44 L 168.31,219.35 L 168.10,219.71 L 167.74,220.36 L 167.66,220.57 L 167.57,220.93 L 167.63,220.99 L 168.55,221.40 L 169.68,221.73 L 170.43,221.90 L 172.05,222.26 L 172.98,222.44 L 173.02,222.45 L 171.08,222.10 L 170.30,221.96 L 169.06,221.71 L 167.87,221.43 L 167.58,221.35 L 166.68,221.78 L 166.17,222.09 L 164.76,223.38 L 164.38,223.75 L 163.50,224.68 L 163.04,225.17 L 162.02,226.33 L 161.49,226.94 L 160.32,228.34 L 158.37,230.72 L 157.29,232.07 L 155.27,234.56 L 154.30,235.75 L 152.63,237.77 L 151.87,238.71 L 150.75,240.03 L 150.51,240.31 L 150.18,240.70 L 149.89,241.00 L 149.81,241.07 L 149.25,241.68 L 148.92,242.06 L 147.95,243.17 L 147.43,243.78 L 146.19,245.25 L 144.15,247.70 L 143.51,248.46 L 142.46,249.72 L 141.97,250.30 L 141.15,251.23 L 140.76,251.65 L 140.11,252.29 L 139.80,252.57 L 139.26,252.95 L 138.72,253.27 L 137.71,253.32 L 135.76,252.79 L 134.49,252.36 L 131.99,251.20 L 130.75,250.58 L 128.35,249.05 L 127.15,248.25 L 124.86,246.40 L 123.73,245.43 L 121.58,243.27 L 120.52,242.16 L 118.54,239.73 L 117.58,238.49 L 115.80,235.82 L 114.94,234.46 L 113.39,231.58 L 111.36,227.05 L 111.20,226.65 L 110.94,226.02 L 110.81,225.74 L 110.62,225.41 L 110.53,225.29 L 110.40,225.30 L 110.34,225.35 L 110.27,225.75 L 110.24,226.00 L 110.22,226.82 L 110.22,227.30 L 110.25,228.60 L 110.27,229.31 L 110.35,231.13 L 110.51,234.50 L 110.58,236.01 L 110.74,239.01 L 110.83,240.47 L 111.00,243.15 L 111.08,244.42 L 111.24,246.47 L 111.43,248.50 L 111.23,246.47 L 111.07,244.42 L 110.98,243.15 L 110.79,240.47 L 110.70,239.01 L 110.52,236.01 L 110.43,234.50 L 109.57,225.15 L 109.18,222.28 L 108.97,221.07 L 108.55,218.86 L 108.35,218.12 L 105.95,211.23 L 103.84,206.54 L 102.58,204.23 L 99.93,199.67 L 98.45,197.53 L 95.41,193.35 L 93.79,191.50 L 90.90,188.05 L 89.23,185.88 L 88.51,184.83 L 87.15,182.76 L 86.57,181.74 L 85.49,179.70 L 85.04,178.68 L 83.50,174.55 L 83.04,172.29 L 82.63,170.00 L 82.49,168.77 L 82.25,166.26 L 82.19,164.90 L 82.09,160.65 L 82.15,158.12 L 82.26,156.96 L 82.85,152.60 L 83.44,150.54 L 84.07,148.29 L 84.41,146.95 L 84.54,146.40 L 84.75,145.40 L 84.80,145.08 L 84.85,144.56 L 84.81,144.53 L 84.33,144.21 L 83.70,143.81 L 83.27,143.53 L 81.24,142.26 L 80.00,141.50 L 77.44,139.84 L 75.55,138.53 L 74.54,137.79 L 70.31,134.63 L 68.09,132.86 L 63.64,129.24 L 61.52,127.41 L 57.41,123.77 L 55.67,122.10 L 49.85,116.50 L 46.51,120.32 L 45.11,122.14 L 45.57,121.47 L 49.07,116.89 L 41.54,108.78 L 40.50,107.66 L 38.61,105.54 L 37.71,104.52 L 36.22,102.73 L 35.53,101.90 L 34.60,100.64 L 34.41,100.37 L 34.16,99.97 L 34.01,99.58 L 34.01,99.43 L 34.20,98.77 L 34.32,98.38 L 34.70,97.34 L 36.36,93.48 L 36.73,92.68 L 37.71,91.04 L 38.23,90.23 L 39.46,88.59 L 40.75,86.95 L 43.91,83.87 L 45.55,82.38 L 49.11,79.86 L 50.01,79.28 L 51.81,78.29 L 54.47,77.10 L 55.76,76.61 L 58.22,75.84 L 58.87,75.66 L 60.30,75.30 L 61.05,75.13 L 62.77,74.77 L 63.68,74.59 L 65.83,74.21 L 66.97,74.01 L 69.67,73.58 L 71.10,73.35 L 74.49,72.84 L 80.47,71.95 L 81.57,71.79 L 84.49,71.15 L 86.04,70.79 L 89.54,69.84 L 91.32,69.34 L 94.97,68.20 L 100.15,66.40 L 102.25,65.62 L 106.16,64.27 L 108.07,63.63 L 111.71,62.55 L 115.32,61.54 L 122.36,60.25 L 124.15,59.99 L 127.89,59.61 L 129.79,59.44 L 133.86,59.25 L 135.95,59.18 L 140.49,59.15 M 258.12,251.71 L 255.58,252.45 L 254.29,252.75 L 251.58,253.02 L 250.20,253.09 L 247.29,252.87 L 246.54,252.79 L 248.18,252.93 L 250.00,252.88 L 253.64,252.65 L 255.31,252.34 L 256.94,252.00 L 257.68,251.78 L 258.75,251.43 M 226.77,245.16 L 226.39,244.95 L 226.14,244.80 M 275.29,237.13 L 274.54,238.31 L 274.12,238.92 L 273.02,240.26 L 271.85,241.63 L 269.81,243.57 L 271.92,241.54 L 273.07,240.19 L 274.15,238.86 L 274.57,238.26 L 275.30,237.11 M 204.54,232.22 L 208.23,234.16 L 215.61,238.26 L 216.10,238.57 L 208.61,234.39 L 204.86,232.40 L 198.79,229.70 M 193.55,227.52 L 193.60,227.54 L 192.94,227.33 M 186.38,225.25 L 186.39,225.25 L 186.13,225.19 M 224.83,219.65 L 225.40,219.43 L 226.83,218.70 L 227.27,218.47 L 227.26,218.47 L 226.58,218.84 L 225.30,219.50 L 224.77,219.70 L 223.81,220.00 L 223.78,220.00 M 214.08,216.25 L 215.05,216.77 L 216.99,217.71 L 217.95,218.15 L 219.73,218.90 L 220.58,219.24 L 221.99,219.70 L 223.16,219.94 L 221.27,219.59 L 219.39,218.92 L 218.27,218.42 L 215.95,217.30 L 214.67,216.61 L 212.03,215.12 L 210.64,214.27 L 205.79,211.15 M 233.03,214.53 L 232.80,214.69 L 234.11,213.63 M 236.71,211.48 L 235.36,212.60 L 237.09,211.11 L 237.40,210.84 M 205.13,210.72 L 204.91,210.58 L 204.45,210.24 M 29.70,194.53 L 30.12,197.89 L 30.41,199.72 L 31.05,203.52 L 31.47,205.67 L 32.13,208.98 L 31.91,207.92 L 31.43,205.66 L 31.20,204.58 L 30.84,202.76 L 30.44,200.65 L 30.20,199.33 L 29.83,196.21 L 29.65,194.59 L 29.56,193.30 M 245.59,199.66 L 244.62,199.70 L 242.50,199.80 L 235.49,200.16 L 233.65,200.26 L 229.70,200.42 L 227.70,200.49 L 223.59,200.59 L 219.46,200.67 L 219.03,200.67 L 223.65,200.59 L 226.10,200.51 L 231.05,200.32 L 233.59,200.19 L 241.35,199.83 L 243.69,199.73 L 244.77,199.69 L 246.74,199.61 M 274.08,177.71 L 274.02,177.71 L 273.77,177.68 M 270.45,177.06 L 271.08,177.19 L 272.13,177.39 L 272.63,177.49 L 273.41,177.62 L 273.74,177.67 L 273.24,177.60 L 272.66,177.50 L 271.37,177.26 L 270.57,177.09 L 268.85,176.73 L 267.85,176.50 L 267.80,176.49 M 266.06,176.10 L 267.29,176.38 L 265.77,176.04 L 264.62,175.77 L 264.00,175.63 M 31.46,154.15 L 30.66,158.03 L 30.35,160.03 L 29.79,164.07 L 29.59,166.16 L 29.35,169.05 L 29.41,167.99 L 29.53,166.21 L 29.86,162.98 L 30.48,158.79 L 31.16,155.22 L 31.50,153.96 M 33.70,146.03 L 34.11,144.63 L 34.42,143.80 M 39.65,131.32 L 37.00,137.09 L 36.39,138.58 L 36.62,137.96 L 37.28,136.34 L 38.67,133.24 L 39.38,131.73 L 40.59,129.41 M 43.74,124.13 L 43.12,125.12 L 40.64,129.31 L 40.87,128.87 L 41.62,127.48 L 43.18,124.92 L 44.13,123.55 M 200.92,81.67 L 199.49,83.03 L 198.81,83.73 L 199.03,83.47 L 199.90,82.55 L 200.80,81.70 L 201.36,81.19 L 203.79,79.01 M 203.83,78.98 L 205.18,77.85 L 205.21,77.82 L 203.83,78.98 M 168.90,36.16 L 169.31,36.96 L 170.23,38.64 L 170.81,39.59 L 171.13,40.09 L 170.82,39.59 L 170.24,38.65 L 169.32,36.96 L 168.90,36.16 L 168.35,34.84 L 168.01,33.36 L 168.35,34.84 M 166.00,31.35 L 166.18,31.57 L 166.00,31.35 L 166.00,31.03 L 166.64,30.06 L 166.00,31.03 M 36.51,228.45 L 36.91,230.18 L 37.38,232.15 L 36.62,228.94 M 253.61,200.39 L 253.81,199.91 L 253.85,199.52 L 253.86,199.53 L 253.82,199.92 L 253.62,200.40 L 253.44,200.72 L 252.56,202.21 L 253.44,200.72 Z" fill="rgba(33,39,104,1)"/>
<path d="M 417.75,451.16 L 418.95,451.18 L 421.15,451.22 L 422.22,451.24 L 424.15,451.28 L 426.02,451.32 L 429.08,451.41 L 430.51,451.45 L 432.81,451.58 L 433.88,451.65 L 435.62,451.83 L 436.43,451.93 L 437.79,452.19 L 438.43,452.34 L 439.59,452.70 L 443.20,454.30 L 444.73,455.05 L 447.32,456.68 L 448.56,457.53 L 450.71,459.48 L 451.74,460.52 L 453.61,462.97 L 456.28,467.38 L 456.71,468.19 L 457.35,469.76 L 457.63,470.55 L 458.02,472.30 L 458.19,473.22 L 458.37,475.41 L 458.48,479.50 L 458.48,480.38 L 458.47,481.89 L 458.45,482.62 L 458.39,483.88 L 458.32,485.10 L 457.99,487.04 L 457.79,487.98 L 457.10,489.76 L 455.55,492.82 L 454.76,494.25 L 452.86,496.86 L 451.87,498.12 L 449.57,500.39 L 448.38,501.47 L 445.72,503.37 L 441.34,505.76 L 440.89,505.97 L 439.50,506.30 L 439.07,506.38 L 437.95,506.53 L 437.34,506.60 L 435.77,506.72 L 434.92,506.78 L 432.78,506.89 L 431.63,506.94 L 428.82,507.03 L 427.32,507.07 L 423.72,507.15 L 421.81,507.18 L 417.32,507.24 L 414.94,507.27 L 409.44,507.32 L 407.99,507.33 L 404.89,507.35 L 403.31,507.37 L 399.92,507.38 L 398.18,507.39 L 398.00,507.39 L 398.01,484.13 L 398.02,484.79 L 398.03,486.40 L 398.06,489.17 L 398.08,490.49 L 398.15,492.73 L 398.18,493.79 L 398.27,495.53 L 398.32,496.34 L 398.44,497.63 L 398.51,498.22 L 398.66,499.10 L 398.74,499.49 L 398.93,500.00 L 399.25,500.39 L 399.34,500.42 L 399.87,500.49 L 400.19,500.53 L 401.16,500.58 L 401.69,500.61 L 403.03,500.66 L 403.75,500.68 L 405.42,500.71 L 407.16,500.74 L 411.41,500.76 L 418.50,500.72 L 420.64,500.69 L 424.21,500.64 L 425.89,500.61 L 428.64,500.54 L 429.93,500.50 L 432.02,500.39 L 432.99,500.34 L 434.56,500.17 L 435.30,500.08 L 436.51,499.85 L 437.08,499.72 L 438.07,499.40 L 439.03,499.05 L 440.96,498.00 L 441.99,497.42 L 443.83,496.09 L 444.71,495.39 L 446.25,493.85 L 446.98,493.06 L 448.23,491.36 L 448.82,490.49 L 449.78,488.65 L 450.22,487.72 L 450.89,485.79 L 451.19,484.81 L 451.58,482.82 L 451.74,481.82 L 451.85,479.80 L 451.88,478.79 L 451.71,476.79 L 451.60,475.79 L 451.17,473.82 L 450.92,472.85 L 450.22,470.97 L 449.84,470.04 L 448.88,468.28 L 448.37,467.41 L 447.16,465.80 L 446.52,465.02 L 445.05,463.59 L 444.28,462.91 L 442.57,461.70 L 441.68,461.13 L 439.71,460.19 L 436.50,459.10 L 436.21,459.03 L 435.36,458.90 L 434.89,458.83 L 433.71,458.71 L 432.46,458.59 L 429.18,458.39 L 427.45,458.30 L 423.53,458.16 L 421.52,458.10 L 417.35,458.03 L 415.28,458.00 L 411.26,458.00 L 409.31,458.00 L 405.87,458.08 L 405.06,458.10 L 403.62,458.16 L 402.93,458.20 L 401.77,458.28 L 401.23,458.32 L 400.40,458.43 L 399.58,458.61 L 399.41,458.67 L 399.12,458.93 L 398.98,459.10 L 398.76,459.62 L 398.65,459.93 L 398.48,460.82 L 398.40,461.32 L 398.28,462.66 L 398.22,463.40 L 398.14,465.31 L 398.10,466.34 L 398.05,468.91 L 398.03,470.28 L 398.02,473.09 L 398.02,472.60 L 398.02,469.52 L 398.02,467.85 L 398.02,464.42 L 398.02,462.59 L 398.02,458.84 L 398.02,456.86 L 398.01,450.82 M 62.68,506.45 L 63.01,506.47 L 63.74,506.52 L 64.22,506.54 L 65.26,506.58 L 65.89,506.61 L 67.21,506.65 L 67.97,506.68 L 69.55,506.72 L 70.44,506.74 L 74.24,506.83 L 76.47,506.87 L 81.14,506.95 L 83.76,506.99 L 89.18,507.06 L 92.13,507.09 L 98.16,507.16 L 101.36,507.18 L 107.86,507.23 L 111.25,507.25 L 114.83,507.27 L 116.88,507.28 L 121.17,507.30 L 123.57,507.31 L 128.51,507.33 L 131.22,507.34 L 132.08,507.34 L 129.21,507.34 L 123.97,507.32 L 121.44,507.31 L 116.99,507.29 L 114.86,507.28 L 111.25,507.26 L 107.86,507.24 L 101.36,507.19 L 98.16,507.17 L 92.13,507.10 L 89.18,507.07 L 83.76,506.99 L 81.14,506.96 L 76.47,506.87 L 74.24,506.83 L 70.44,506.74 L 69.55,506.72 L 67.97,506.68 L 67.21,506.65 L 65.89,506.61 L 65.26,506.59 L 64.22,506.54 L 63.74,506.52 L 63.01,506.47 L 62.68,506.45 L 62.26,506.40 L 62.00,506.34 L 62.26,506.40 M 146.41,486.92 L 148.05,487.75 L 151.07,489.28 L 152.51,490.01 L 154.93,491.21 L 155.48,491.49 L 156.44,491.96 L 156.88,492.18 L 157.59,492.52 L 157.92,492.67 L 158.26,492.83 L 158.26,492.85 L 158.23,492.84 L 154.80,491.30 L 152.15,490.00 L 150.69,489.25 L 144.58,486.00 L 141.42,484.19 L 141.26,484.10 M 55.67,122.10 L 57.41,123.77 L 61.52,127.41 L 63.64,129.24 L 68.09,132.86 L 70.31,134.63 L 74.54,137.79 L 75.55,138.53 L 77.44,139.84 L 80.00,141.50 L 81.24,142.26 L 83.27,143.53 L 83.70,143.81 L 84.33,144.21 L 84.81,144.53 L 84.85,144.56 L 84.80,145.08 L 84.75,145.40 L 84.54,146.40 L 84.41,146.95 L 84.07,148.29 L 83.44,150.54 L 82.85,152.60 L 82.26,156.96 L 82.15,158.12 L 82.09,160.65 L 82.19,164.90 L 82.25,166.26 L 82.49,168.77 L 82.63,170.00 L 83.04,172.29 L 83.50,174.55 L 85.04,178.68 L 85.49,179.70 L 86.57,181.74 L 87.15,182.76 L 88.51,184.83 L 89.23,185.88 L 90.90,188.05 L 93.79,191.50 L 95.41,193.35 L 98.45,197.53 L 99.93,199.67 L 102.58,204.23 L 103.84,206.54 L 105.95,211.23 L 108.35,218.12 L 108.55,218.86 L 108.97,221.07 L 109.18,222.28 L 109.57,225.15 L 110.43,234.50 L 110.52,236.01 L 110.70,239.01 L 110.79,240.47 L 110.98,243.15 L 111.07,244.42 L 111.23,246.47 L 111.43,248.50 L 111.63,250.07 L 112.01,253.90 L 112.19,255.92 L 112.53,260.60 L 112.69,263.04 L 112.99,268.50 L 113.13,271.32 L 113.39,277.48 L 113.51,280.64 L 113.72,287.42 L 113.83,290.88 L 114.00,298.20 L 114.08,301.93 L 114.21,309.72 L 114.27,313.66 L 114.35,321.84 L 114.39,325.97 L 114.43,334.46 L 114.45,338.74 L 114.45,347.46 L 114.43,356.23 L 114.27,374.13 L 114.16,383.09 L 113.80,400.92 L 113.05,426.90 L 111.76,463.30 L 115.63,466.61 L 116.97,467.76 L 115.23,466.58 L 114.34,466.10 L 112.61,465.23 L 111.74,464.94 L 109.96,464.45 L 108.94,464.31 L 106.79,464.09 L 105.48,464.04 L 102.67,463.99 L 100.92,463.99 L 99.09,464.00 L 98.08,464.00 L 95.96,464.01 L 94.79,464.01 L 89.38,464.01 L 86.45,464.03 L 85.27,464.05 L 83.10,464.09 L 82.26,464.13 L 80.72,464.23 L 80.15,464.30 L 79.11,464.46 L 78.74,464.57 L 78.08,464.82 L 77.85,464.97 L 77.13,465.70 L 76.82,466.25 L 75.93,468.00 L 75.73,468.45 L 75.96,467.75 L 76.01,467.68 L 76.23,466.80 L 76.60,464.86 L 76.69,464.34 L 76.60,463.32 L 76.50,462.80 L 75.99,461.64 L 75.67,461.03 L 74.65,459.57 L 72.45,456.86 L 70.08,454.08 L 66.05,448.38 L 64.15,445.49 L 61.02,439.41 L 59.55,436.31 L 57.22,429.68 L 56.68,427.98 L 55.74,424.44 L 54.53,418.91 L 54.41,418.33 L 54.17,416.68 L 54.05,415.78 L 53.79,413.55 L 53.66,412.38 L 53.38,409.67 L 53.25,408.27 L 52.97,405.19 L 52.69,402.02 L 52.17,394.95 L 51.49,384.00 L 51.40,382.21 L 51.21,378.86 L 51.12,377.22 L 50.94,374.14 L 50.76,371.13 L 50.40,365.85 L 50.22,363.33 L 49.86,358.91 L 49.68,356.80 L 49.29,353.09 L 49.10,351.31 L 48.67,348.17 L 48.45,346.65 L 47.97,343.92 L 46.22,336.55 L 45.85,335.24 L 45.33,332.31 L 45.22,331.50 L 45.04,329.57 L 44.96,328.54 L 44.85,326.06 L 44.79,324.73 L 44.73,321.51 L 44.70,319.80 L 44.68,315.67 L 44.68,314.57 L 44.68,312.17 L 44.68,310.94 L 44.69,308.26 L 44.70,306.88 L 44.72,303.88 L 44.75,299.02 L 44.77,296.65 L 44.79,292.11 L 44.79,289.88 L 44.78,285.67 L 44.77,283.61 L 44.73,279.78 L 44.71,277.91 L 44.64,274.52 L 44.61,272.88 L 44.52,269.98 L 44.47,268.59 L 44.36,266.24 L 44.30,265.14 L 44.17,263.39 L 43.94,261.52 L 43.87,261.10 L 43.62,259.83 L 43.47,259.13 L 43.10,257.34 L 42.89,256.39 L 42.41,254.16 L 42.15,253.00 L 41.58,250.41 L 40.98,247.75 L 39.60,241.69 L 37.38,232.15 L 36.91,230.18 L 36.06,226.54 L 35.65,224.77 L 34.89,221.48 L 34.52,219.88 L 33.85,216.91 L 33.53,215.47 L 32.94,212.79 L 32.37,210.18 L 31.47,205.67 L 31.05,203.52 L 30.41,199.72 L 30.12,197.89 L 29.70,194.53 L 29.51,192.89 L 29.27,189.70 L 29.17,188.11 L 29.06,184.83 L 29.00,179.50 L 29.00,177.13 L 29.14,172.62 L 29.24,170.40 L 29.59,166.16 L 29.79,164.07 L 30.35,160.03 L 30.66,158.03 L 31.46,154.15 L 32.31,150.29 L 34.76,142.76 L 35.44,140.88 L 37.00,137.09 L 39.65,131.32 L 40.62,129.34 L 43.12,125.12 L 43.74,124.13 L 44.94,122.37 L 46.51,120.32 L 49.85,116.50 M 123.56,352.16 L 124.21,352.39 L 125.68,352.81 L 126.73,352.98 L 129.04,353.28 L 130.56,353.39 L 132.15,353.50 L 133.04,353.54 L 134.90,353.63 L 135.94,353.66 L 138.09,353.73 L 139.28,353.76 L 141.74,353.81 L 143.09,353.83 L 145.88,353.88 L 147.41,353.89 L 150.54,353.92 L 152.25,353.94 L 160.00,354.00 L 160.00,377.00 L 159.94,385.93 L 159.90,388.61 L 159.87,389.84 L 159.81,392.20 L 159.78,393.24 L 159.71,395.23 L 159.67,396.06 L 159.59,397.60 L 159.54,398.18 L 159.45,399.22 L 159.40,399.53 L 159.30,400.00 L 159.25,400.00 L 159.18,400.24 L 159.13,400.64 L 159.11,400.95 L 159.06,401.65 L 159.04,402.10 L 159.00,403.08 L 158.98,403.68 L 158.91,406.31 L 158.88,407.98 L 158.82,411.57 L 158.80,413.69 L 158.78,415.98 L 158.74,414.07 L 158.69,412.47 L 158.59,409.60 L 158.53,408.22 L 158.38,405.74 L 158.30,404.55 L 158.12,402.40 L 157.92,400.33 L 157.38,396.96 L 157.08,395.36 L 156.31,392.62 L 155.89,391.29 L 154.84,388.75 L 152.92,384.69 L 152.04,382.91 L 150.30,379.79 L 149.41,378.28 L 147.54,375.54 L 146.57,374.19 L 144.40,371.57 L 140.60,367.53 L 140.11,367.04 L 139.30,366.22 L 138.93,365.84 L 138.36,365.23 L 137.84,364.67 L 137.45,363.99 L 137.35,363.70 L 137.73,363.37 L 139.07,362.96 L 139.57,362.84 L 140.29,362.53 L 140.60,362.35 L 141.00,361.86 L 141.17,361.57 L 141.32,360.77 L 141.34,359.11 L 141.30,358.12 L 141.17,356.82 L 141.08,356.25 L 140.67,355.56 L 140.40,355.27 L 139.42,354.89 L 137.01,354.35 L 136.33,354.22 L 135.36,354.08 L 134.94,354.04 L 134.43,354.10 L 134.22,354.17 L 134.09,354.46 L 134.24,355.18 L 134.40,355.59 L 134.38,356.65 L 133.89,358.09 L 133.71,358.37 L 133.32,358.64 L 133.11,358.72 L 132.61,358.56 L 132.34,358.42 L 131.63,357.79 L 130.24,356.24 L 129.46,355.31 L 127.66,353.92 L 127.22,353.63 L 126.39,353.24 L 125.32,352.99 L 124.63,352.99 L 123.59,352.46 L 123.12,352.12 L 122.89,351.67 M 398.00,311.70 L 398.00,384.94 L 397.97,311.73 L 408.92,297.12 M 176.79,307.66 L 177.46,308.87 L 177.54,309.13 L 177.74,309.56 L 177.87,309.77 L 178.31,310.09 L 178.57,310.24 L 179.46,310.47 L 179.97,310.57 L 181.50,310.72 L 182.36,310.79 L 184.75,310.87 L 185.41,310.89 L 186.92,310.92 L 187.71,310.93 L 189.51,310.95 L 190.45,310.96 L 192.56,310.97 L 193.65,310.97 L 195.05,310.97 L 159.50,311.01 L 141.00,329.46 L 133.80,336.72 L 131.63,338.95 L 130.63,339.97 L 128.71,341.97 L 127.86,342.87 L 126.24,344.58 L 125.56,345.32 L 124.29,346.70 L 123.81,347.24 L 122.94,348.23 L 122.68,348.56 L 122.58,348.70 L 123.20,347.01 L 123.29,346.87 L 123.82,346.24 L 124.13,345.87 L 125.07,344.83 L 125.58,344.27 L 126.88,342.88 L 127.57,342.15 L 129.19,340.47 L 130.03,339.59 L 131.90,337.66 L 132.87,336.67 L 134.95,334.54 L 141.75,327.70 L 159.01,310.50 L 167.25,309.63 L 168.39,309.51 L 170.51,309.21 L 171.52,309.06 L 173.27,308.72 L 174.07,308.55 L 175.24,308.21 L 176.14,307.75 L 176.32,307.47 M 208.71,310.96 L 204.77,310.97 L 204.45,310.97 L 204.82,310.97 L 206.69,310.96 L 209.35,310.96 M 233.85,308.89 L 233.84,308.89 L 233.85,308.89 M 235.60,307.31 L 235.04,307.87 L 234.47,308.36 L 235.06,307.81 L 235.59,307.25 L 236.60,305.82 L 238.34,303.13 L 236.60,305.86 M 428.71,268.65 L 428.60,269.01 L 428.15,269.98 L 427.89,270.50 L 427.12,271.83 L 426.69,272.54 L 425.57,274.26 L 424.97,275.18 L 423.48,277.33 L 422.69,278.47 L 420.81,281.09 L 419.82,282.47 L 417.52,285.60 L 413.58,290.90 L 413.56,290.91 L 417.51,285.61 L 419.81,282.48 L 420.81,281.10 L 422.69,278.47 L 423.48,277.34 L 424.97,275.18 L 425.57,274.27 L 426.69,272.54 L 427.12,271.83 L 427.89,270.50 L 428.15,269.98 L 428.60,269.01 L 428.71,268.65 L 428.85,268.03 M 75.20,470.08 L 75.17,470.17 L 75.01,470.57 L 74.27,472.44 L 75.04,470.50 Z" fill="rgba(68,139,248,1)"/>
<path d="M 253.64,252.65 L 252.94,252.69 L 253.91,252.60 M 273.07,240.19 L 271.92,241.54 L 268.95,244.41 L 267.40,245.82 L 264.16,248.34 L 263.36,248.92 L 261.83,249.90 L 259.73,251.04 L 259.11,251.32 L 257.68,251.78 L 256.94,252.00 L 255.31,252.34 L 254.54,252.48 L 255.88,252.17 L 259.25,251.19 L 260.69,250.47 L 262.87,249.18 L 264.47,248.05 L 265.32,247.39 L 268.75,244.55 L 270.33,243.02 L 271.87,241.49 L 272.55,240.76 L 273.15,240.10 M 348.52,153.75 L 349.82,153.83 L 352.22,154.14 L 353.38,154.32 L 355.48,154.81 L 358.22,155.76 L 359.12,156.16 L 360.69,157.06 L 361.43,157.53 L 362.72,158.56 L 363.33,159.09 L 364.33,160.25 L 364.80,160.84 L 365.54,162.11 L 365.88,162.76 L 366.36,164.14 L 366.56,164.84 L 366.79,166.31 L 366.96,167.81 L 366.57,171.05 L 366.27,172.71 L 364.98,176.22 L 364.24,178.00 L 362.13,181.72 L 360.98,183.60 L 358.10,187.44 L 356.58,189.37 L 353.02,193.28 L 351.15,195.23 L 346.96,199.12 L 344.80,201.06 L 340.05,204.87 L 337.61,206.76 L 332.37,210.41 L 329.70,212.22 L 324.04,215.65 L 321.16,217.33 L 315.14,220.47 L 312.09,222.00 L 305.79,224.77 L 302.61,226.10 L 296.08,228.44 L 286.11,231.38 L 285.06,231.64 L 283.29,232.10 L 282.45,232.33 L 281.06,232.72 L 280.41,232.92 L 279.35,233.28 L 278.86,233.47 L 278.07,233.82 L 277.34,234.19 L 276.44,235.01 L 276.00,235.77 L 276.00,235.70 L 275.55,234.99 L 274.75,234.62 L 274.04,234.47 L 272.39,234.20 L 271.19,234.09 L 269.92,233.98 L 269.18,233.93 L 267.63,233.83 L 266.74,233.79 L 263.41,233.56 L 261.42,233.36 L 260.52,233.23 L 257.17,232.61 L 255.73,232.13 L 252.97,231.03 L 251.64,230.24 L 248.97,228.50 L 247.50,227.32 L 244.50,224.94 L 244.26,224.74 L 244.37,224.81 L 244.89,225.00 L 245.00,225.00 L 245.20,224.52 L 245.30,224.21 L 245.46,223.20 L 245.54,222.64 L 245.65,221.25 L 245.70,220.52 L 245.74,218.87 L 245.79,212.74 L 242.15,216.42 L 240.92,217.67 L 243.76,214.66 L 246.24,211.89 L 247.44,210.34 L 247.85,209.68 L 248.55,208.40 L 248.73,207.82 L 249.00,206.68 L 249.00,206.12 L 248.91,204.51 L 248.82,204.08 L 248.86,204.15 L 249.05,204.66 L 249.35,205.29 L 249.51,205.53 L 249.86,205.55 L 250.06,205.48 L 250.64,204.85 L 251.94,203.09 L 252.56,202.21 L 253.44,200.72 L 253.62,200.40 L 253.82,199.92 L 253.86,199.53 L 253.83,199.50 L 253.38,199.48 L 253.09,199.47 L 252.15,199.47 L 251.62,199.48 L 250.25,199.51 L 249.51,199.52 L 247.76,199.58 L 246.84,199.61 L 244.77,199.69 L 243.69,199.73 L 241.35,199.83 L 240.55,199.86 L 254.16,199.10 L 261.45,192.18 L 267.52,186.61 L 269.34,185.01 L 270.08,184.38 L 271.44,183.25 L 271.87,182.94 L 274.00,181.04 L 274.79,179.94 L 274.87,179.48 L 274.80,178.62 L 274.45,178.29 L 273.53,177.70 L 272.75,177.53 L 272.48,177.47 L 272.66,177.50 L 273.24,177.60 L 274.02,177.71 L 274.55,177.69 L 274.56,177.67 L 274.73,177.24 L 274.83,176.97 L 275.14,176.13 L 276.45,172.64 L 277.02,171.10 L 278.46,168.34 L 279.24,167.01 L 281.09,164.68 L 282.07,163.57 L 284.32,161.67 L 288.16,159.30 L 289.89,158.45 L 293.13,157.31 L 294.73,156.83 L 297.87,156.43 L 299.44,156.32 L 302.67,156.64 L 307.82,157.94 L 308.87,158.29 L 310.67,158.81 L 311.53,159.04 L 312.94,159.30 L 313.60,159.40 L 314.64,159.40 L 315.78,159.13 L 316.01,159.01 L 317.16,158.61 L 317.82,158.38 L 319.64,157.83 L 320.61,157.55 L 322.87,156.93 L 326.50,155.98 L 329.55,155.22 L 335.68,154.25 L 338.71,153.86 L 344.48,153.64 L 345.87,153.63 M 239.34,220.84 L 238.53,220.20 L 238.56,220.16 M 232.82,214.67 L 231.17,215.96 L 230.40,216.52 L 228.90,217.57 L 228.22,218.00 L 226.90,218.80 L 226.31,219.09 L 225.20,219.62 L 224.73,219.77 L 223.84,220.00 L 223.81,220.00 L 224.77,219.70 L 225.30,219.50 L 226.58,218.84 L 227.26,218.47 L 228.79,217.51 L 229.58,217.00 L 231.29,215.79 L 232.87,214.64 M 212.30,215.27 L 212.04,215.13 L 212.04,215.13 M 211.17,214.59 L 210.65,214.28 L 210.64,214.27 M 233.67,214.00 L 233.39,214.23 L 234.12,213.62 M 202.05,208.47 L 204.91,210.58 L 210.35,214.08 L 204.92,210.59 L 202.06,208.48 L 196.44,204.14 L 194.00,201.93 L 196.43,204.14 M 248.06,202.63 L 248.15,202.82 L 248.09,202.78 L 247.62,202.62 L 247.31,202.66 L 246.66,202.83 L 246.25,203.05 L 245.40,203.56 L 244.89,203.94 L 243.82,204.79 L 243.20,205.35 L 243.07,205.47 L 243.75,204.80 L 244.33,204.25 L 245.35,203.34 L 245.83,202.93 L 246.57,202.36 L 247.24,202.00 L 247.47,202.00 M 195.28,199.19 L 195.21,199.15 L 195.10,198.99 M 209.69,181.36 L 205.99,185.46 L 204.27,187.42 L 202.57,189.35 L 201.78,190.25 L 200.25,192.03 L 199.56,192.84 L 198.25,194.41 L 197.69,195.09 L 196.65,196.38 L 196.25,196.90 L 195.54,197.86 L 195.33,198.19 L 195.00,198.76 L 195.00,198.72 L 195.33,198.16 L 195.54,197.83 L 196.25,196.88 L 196.65,196.35 L 197.69,195.06 L 198.25,194.38 L 199.56,192.82 L 200.25,192.01 L 201.79,190.24 L 202.57,189.33 L 204.27,187.40 L 206.00,185.45 L 209.70,181.36 L 209.99,181.04 M 244.41,170.83 L 247.20,171.54 L 252.87,172.96 L 255.68,173.65 L 260.97,174.92 L 262.24,175.22 L 262.27,175.23 L 261.00,174.95 L 257.40,174.12 L 254.42,173.40 L 252.74,172.98 L 249.27,172.10 L 247.43,171.63 L 243.73,170.67 L 241.88,170.18 L 240.71,169.87 M 199.90,82.55 L 199.03,83.47 L 198.61,83.97 L 197.92,84.58 L 197.58,84.81 L 196.92,84.87 L 197.30,84.63 L 198.07,84.04 L 198.60,83.60 L 199.75,82.66 L 200.09,82.38 M 195.20,84.10 L 194.98,83.96 L 193.51,82.83 L 195.01,83.97 M 191.03,80.16 L 192.16,81.56 L 191.49,80.80 L 190.87,80.02 L 190.49,79.41 M 233.23,79.65 L 232.14,79.99 L 230.12,80.48 L 229.13,80.69 L 227.26,80.89 L 226.34,80.96 L 225.47,80.92 L 226.86,80.85 L 229.80,80.55 L 231.43,80.14 L 234.01,79.38 M 216.22,77.82 L 217.98,78.72 L 219.00,79.22 L 221.48,80.27 L 222.78,80.54 L 225.39,80.91 L 224.57,80.87 L 223.69,80.79 L 221.96,80.41 L 221.10,80.19 L 219.35,79.51 L 218.47,79.13 L 216.65,78.15 L 215.71,77.55 M 235.46,78.88 L 236.67,78.39 L 235.46,78.88 M 188.97,76.60 L 190.08,78.73 L 189.78,78.25 L 189.27,77.34 L 188.61,75.82 M 228.20,5.66 L 229.30,5.74 L 231.27,6.08 L 232.24,6.29 L 234.17,6.92 L 237.36,8.26 L 238.26,8.68 L 240.28,9.89 L 241.31,10.55 L 243.48,12.16 L 245.68,13.85 L 250.14,17.99 L 252.31,20.12 L 256.08,24.51 L 256.94,25.59 L 258.39,27.65 L 260.05,30.50 L 260.88,32.22 L 261.92,35.90 L 262.33,37.76 L 262.52,41.51 L 262.51,43.37 L 261.87,46.95 L 259.95,51.82 L 259.62,52.42 L 258.79,53.87 L 258.36,54.63 L 257.44,56.25 L 256.97,57.07 L 256.06,58.67 L 254.83,60.82 L 253.95,62.37 L 253.50,63.61 L 253.81,62.62 L 254.56,61.06 L 255.60,58.62 L 256.26,56.80 L 256.54,55.88 L 257.08,54.04 L 257.28,53.18 L 257.62,51.54 L 257.70,50.87 L 258.28,45.98 L 253.39,48.72 L 250.53,50.18 L 248.88,50.79 L 248.00,50.95 L 246.14,51.20 L 244.94,51.21 L 243.68,51.22 L 242.94,51.20 L 241.40,51.15 L 240.50,51.11 L 233.94,50.85 L 232.01,50.78 L 231.24,50.75 L 229.83,50.71 L 229.40,50.70 L 227.97,50.83 L 226.87,51.06 L 226.27,51.23 L 223.73,52.10 L 222.39,52.73 L 219.70,54.08 L 218.45,54.87 L 216.05,56.50 L 215.12,57.34 L 212.88,60.02 L 211.51,62.28 L 210.94,63.51 L 209.89,66.00 L 209.56,67.20 L 209.03,69.53 L 209.03,70.50 L 209.43,72.61 L 210.19,73.86 L 210.06,73.77 L 205.46,77.62 L 205.59,77.48 L 206.86,76.10 L 207.22,75.46 L 207.76,74.19 L 207.87,73.40 L 208.00,71.70 L 208.00,70.50 L 208.58,65.93 L 209.51,63.05 L 210.25,61.70 L 211.91,59.05 L 213.01,57.81 L 215.38,55.41 L 216.83,54.30 L 218.37,53.10 L 219.17,52.44 L 219.47,52.18 L 219.99,51.71 L 220.14,51.54 L 220.38,51.25 L 220.39,51.18 L 220.33,51.07 L 220.20,51.08 L 219.86,51.16 L 219.59,51.27 L 218.96,51.53 L 218.54,51.73 L 217.63,52.17 L 217.07,52.46 L 214.37,54.30 L 212.64,55.92 L 211.80,56.94 L 210.15,59.12 L 209.35,60.42 L 207.77,63.16 L 207.00,64.76 L 205.93,66.77 L 205.21,67.95 L 204.87,68.42 L 204.22,69.27 L 203.94,69.54 L 203.43,69.96 L 203.27,69.96 L 202.39,69.73 L 201.48,69.36 L 200.91,69.08 L 198.38,67.75 L 196.99,66.90 L 194.63,65.57 L 193.21,64.90 L 192.59,64.68 L 191.39,64.32 L 190.87,64.25 L 189.88,64.18 L 189.57,64.24 L 189.85,63.87 L 189.89,63.72 L 189.78,63.30 L 189.70,63.08 L 189.33,62.48 L 189.11,62.15 L 188.46,61.32 L 188.09,60.87 L 187.11,59.76 L 186.57,59.16 L 185.23,57.72 L 182.79,55.13 L 181.02,53.28 L 177.50,49.01 L 175.78,46.85 L 172.74,42.57 L 172.04,41.53 L 170.81,39.59 L 170.23,38.64 L 169.31,36.96 L 168.90,36.16 L 168.35,34.84 L 168.01,33.36 L 168.01,33.18 L 168.30,32.72 L 168.49,32.47 L 169.11,31.89 L 169.80,31.30 L 171.87,29.93 L 172.98,29.25 L 175.49,27.97 L 179.19,26.48 L 180.10,26.19 L 181.30,25.79 L 181.80,25.60 L 182.21,25.37 L 182.32,25.27 L 181.99,25.15 L 180.72,25.07 L 179.84,25.05 L 177.70,25.45 L 176.59,25.71 L 174.27,26.58 L 173.12,27.06 L 170.95,28.24 L 168.26,30.22 L 167.64,30.81 L 166.66,31.43 L 166.46,31.53 L 166.18,31.57 L 166.00,31.35 L 166.00,31.03 L 166.64,30.06 L 167.04,29.53 L 168.27,28.32 L 168.93,27.71 L 170.48,26.51 L 172.88,25.02 L 173.20,24.85 L 174.44,24.50 L 175.14,24.33 L 176.94,24.00 L 183.38,23.26 L 184.49,23.18 L 186.38,23.03 L 187.28,22.94 L 188.83,22.71 L 190.33,22.45 L 192.93,21.43 L 193.59,21.11 L 194.98,20.25 L 195.70,19.79 L 197.32,18.59 L 198.17,17.94 L 200.16,16.34 L 203.69,13.40 L 204.63,12.61 L 206.35,11.26 L 207.20,10.61 L 208.80,9.52 L 210.38,8.49 L 213.45,7.12 L 215.00,6.53 L 218.42,5.89 L 219.32,5.77 L 221.27,5.63 L 224.50,5.54 L 225.89,5.54 M 248.91,76.54 L 248.88,76.54 L 249.69,76.29 M 250.24,76.12 L 250.22,76.13 L 250.51,75.83 M 250.70,75.63 L 250.70,75.63 L 250.71,75.61 M 187.02,68.77 L 187.56,72.63 L 188.31,75.10 L 188.05,74.43 L 187.50,72.48 L 187.27,71.51 L 187.04,69.70 L 186.98,68.82 L 187.02,68.33 M 251.50,74.44 L 251.49,74.45 L 251.56,74.17 M 252.08,70.13 L 252.06,71.49 L 251.72,73.53 L 251.69,73.64 L 252.00,71.82 L 252.00,70.56 L 252.19,68.48 L 252.49,66.90 L 252.72,66.06 L 252.73,66.03 M 187.16,66.97 L 187.09,67.57 L 187.11,67.30 L 187.23,66.58 L 187.25,66.54 Z" fill="rgba(224,76,73,1)"/>
<path d="M 333.77,265.21 L 349.66,265.24 L 428.50,265.50 L 428.83,267.80 L 428.86,268.01 L 428.71,268.65 L 428.60,269.01 L 428.15,269.98 L 427.89,270.50 L 427.12,271.83 L 426.69,272.54 L 425.57,274.27 L 424.97,275.18 L 423.48,277.34 L 422.69,278.47 L 420.81,281.10 L 419.81,282.48 L 417.51,285.61 L 413.56,290.92 L 397.97,311.73 L 398.00,385.11 L 398.00,395.21 L 398.01,415.56 L 398.01,420.58 L 398.01,430.31 L 398.01,435.11 L 398.01,444.21 L 398.01,448.66 L 398.02,456.86 L 398.02,458.84 L 398.02,462.59 L 398.02,464.42 L 398.02,467.85 L 398.02,469.52 L 398.02,472.60 L 398.02,474.09 L 398.01,476.78 L 398.01,478.07 L 398.01,480.35 L 398.01,483.25 L 398.00,508.00 L 279.25,507.76 L 271.09,507.74 L 254.39,507.71 L 246.02,507.69 L 229.26,507.65 L 220.91,507.62 L 204.53,507.58 L 196.44,507.56 L 180.92,507.51 L 177.11,507.50 L 169.74,507.48 L 166.09,507.46 L 159.09,507.44 L 155.64,507.43 L 149.06,507.41 L 145.83,507.40 L 139.74,507.37 L 136.76,507.36 L 131.22,507.34 L 128.51,507.33 L 123.57,507.31 L 121.17,507.30 L 116.88,507.28 L 114.83,507.27 L 111.25,507.25 L 107.86,507.23 L 101.36,507.18 L 98.16,507.16 L 92.13,507.09 L 89.18,507.06 L 83.76,506.99 L 81.14,506.95 L 76.47,506.87 L 74.24,506.83 L 70.44,506.74 L 69.55,506.72 L 67.97,506.68 L 67.21,506.65 L 65.89,506.61 L 65.26,506.58 L 64.22,506.54 L 63.85,506.52 L 64.00,506.32 L 64.00,506.06 L 63.71,505.21 L 63.27,504.67 L 63.00,504.50 L 62.54,504.51 L 62.56,504.45 L 62.91,503.39 L 63.10,502.83 L 63.55,501.51 L 64.03,500.14 L 65.19,496.84 L 65.80,495.13 L 67.13,491.42 L 67.80,489.54 L 69.16,485.81 L 69.83,483.97 L 71.09,480.58 L 71.69,478.96 L 72.71,476.30 L 72.94,475.69 L 73.33,474.69 L 73.81,473.53 L 74.27,472.44 L 75.01,470.57 L 75.17,470.17 L 75.39,469.55 L 75.54,469.03 L 75.55,468.89 L 75.93,468.00 L 76.82,466.25 L 77.13,465.70 L 77.85,464.97 L 78.08,464.82 L 78.74,464.57 L 79.11,464.46 L 80.15,464.30 L 80.72,464.23 L 82.26,464.13 L 83.10,464.09 L 85.27,464.05 L 86.45,464.03 L 89.38,464.01 L 94.79,464.01 L 95.96,464.01 L 98.08,464.00 L 99.09,464.00 L 100.92,463.99 L 102.67,463.99 L 105.48,464.04 L 106.79,464.09 L 108.94,464.31 L 109.96,464.45 L 111.74,464.94 L 112.61,465.23 L 114.34,466.10 L 115.23,466.58 L 117.20,467.92 L 118.25,468.65 L 120.78,470.56 L 121.46,471.08 L 122.98,472.23 L 125.53,474.17 L 126.38,474.82 L 128.56,476.32 L 129.71,477.09 L 132.38,478.79 L 135.13,480.53 L 141.42,484.19 L 144.58,486.00 L 150.69,489.25 L 152.15,490.00 L 154.80,491.30 L 158.23,492.84 L 158.26,492.85 L 158.31,492.64 L 158.34,492.49 L 158.39,491.96 L 158.41,491.66 L 158.46,490.84 L 158.49,490.40 L 158.53,489.30 L 158.57,488.14 L 158.64,485.05 L 158.68,483.39 L 158.73,479.40 L 158.76,477.30 L 158.79,472.54 L 158.81,470.07 L 158.82,464.66 L 158.83,461.88 L 158.82,455.95 L 158.78,446.59 L 158.76,443.39 L 158.74,437.23 L 158.73,434.21 L 158.73,428.50 L 158.73,425.72 L 158.75,420.59 L 158.76,418.11 L 158.80,413.69 L 158.82,411.57 L 158.88,407.98 L 158.91,406.31 L 158.98,403.68 L 159.00,403.08 L 159.01,402.75 L 159.11,402.90 L 159.29,402.90 L 159.62,402.65 L 159.79,402.14 L 159.90,401.11 L 159.76,400.52 L 159.61,400.32 L 159.27,400.00 L 159.30,400.00 L 159.40,399.53 L 159.45,399.22 L 159.54,398.18 L 159.59,397.60 L 159.67,396.06 L 159.71,395.23 L 159.78,393.24 L 159.81,392.20 L 159.87,389.84 L 159.90,388.61 L 159.94,385.93 L 160.00,377.00 L 160.00,354.00 L 152.25,353.94 L 150.54,353.92 L 147.41,353.89 L 145.88,353.88 L 143.09,353.83 L 141.74,353.81 L 139.28,353.76 L 138.09,353.73 L 135.94,353.66 L 134.90,353.63 L 133.04,353.54 L 132.15,353.50 L 130.56,353.39 L 129.04,353.28 L 126.73,352.98 L 125.68,352.81 L 124.21,352.39 L 123.56,352.16 L 122.78,351.59 L 122.46,351.28 L 122.20,350.54 L 122.25,349.20 L 122.27,349.11 L 122.68,348.56 L 122.94,348.23 L 123.81,347.24 L 124.29,346.70 L 125.56,345.32 L 126.24,344.58 L 127.86,342.87 L 128.71,341.97 L 130.63,339.97 L 131.63,338.95 L 133.80,336.72 L 141.00,329.46 L 159.50,311.01 L 195.50,310.97 L 198.02,310.97 L 202.58,310.97 L 204.77,310.97 L 208.71,310.96 L 210.61,310.96 L 213.98,310.95 L 215.61,310.94 L 218.47,310.90 L 219.84,310.88 L 222.24,310.81 L 223.38,310.78 L 225.37,310.67 L 226.32,310.61 L 227.94,310.46 L 228.72,310.38 L 230.03,310.16 L 231.28,309.94 L 233.05,309.27 L 233.85,308.89 L 235.04,307.87 L 235.60,307.31 L 236.60,305.86 L 238.34,303.13 L 238.54,302.83 L 239.16,301.93 L 239.50,301.43 L 240.39,300.17 L 240.87,299.49 L 241.99,297.93 L 242.58,297.12 L 243.89,295.31 L 245.24,293.45 L 248.33,289.24 L 253.23,282.63 L 254.34,281.14 L 256.34,278.50 L 257.31,277.24 L 259.02,275.03 L 259.84,273.98 L 261.30,272.19 L 261.99,271.34 L 263.21,269.92 L 263.80,269.25 L 264.81,268.18 L 265.29,267.69 L 266.12,266.94 L 266.52,266.60 L 267.19,266.14 L 268.05,265.74 L 268.15,265.72 L 268.74,265.67 L 269.11,265.64 L 270.22,265.60 L 270.84,265.57 L 272.43,265.53 L 273.29,265.51 L 275.35,265.47 L 276.43,265.45 L 278.92,265.42 L 280.22,265.40 L 283.11,265.37 L 284.61,265.35 L 287.87,265.32 L 289.55,265.31 L 293.17,265.29 L 295.02,265.27 L 298.95,265.25 L 300.96,265.25 L 305.19,265.23 L 309.48,265.22 L 318.83,265.20 L 323.62,265.20 M 62.11,506.26 L 62.19,506.39 L 62.00,506.34 L 62.00,506.28 L 62.08,506.00 Z" fill="rgba(237,238,240,1)"/>
<path d="M 62.00,505.44 L 62.00,505.01 L 62.29,504.52 L 63.00,504.50 L 63.27,504.67 L 63.71,505.21 L 64.00,506.06 L 64.00,506.32 L 63.71,506.72 L 63.00,507.00 L 62.72,507.00 L 62.29,506.54 L 62.11,506.26 M 158.58,402.13 L 158.37,401.79 L 158.21,401.06 L 158.40,400.27 L 158.62,400.04 L 159.06,399.98 L 159.27,400.00 L 159.61,400.32 L 159.76,400.52 L 159.90,401.11 L 159.79,402.14 L 159.62,402.65 L 159.29,402.90 L 159.11,402.90 M 239.97,251.56 L 238.61,251.06 L 235.49,249.68 L 233.88,248.94 L 230.38,247.14 L 228.60,246.20 L 224.89,244.08 L 219.27,240.62 L 215.61,238.26 L 208.23,234.16 L 204.54,232.22 L 197.20,229.01 L 193.55,227.52 L 186.38,225.25 L 175.94,222.94 L 174.91,222.79 L 172.98,222.44 L 172.05,222.26 L 170.43,221.90 L 169.68,221.73 L 168.55,221.40 L 167.63,220.99 L 167.57,220.93 L 167.66,220.57 L 167.74,220.36 L 168.10,219.71 L 168.31,219.35 L 168.90,218.44 L 169.22,217.96 L 170.02,216.84 L 170.87,215.66 L 173.09,212.79 L 176.99,208.01 L 187.22,195.86 L 189.36,197.76 L 189.95,198.29 L 191.61,199.77 L 194.00,201.93 L 196.44,204.14 L 202.06,208.48 L 204.92,210.59 L 210.65,214.28 L 212.04,215.13 L 214.68,216.61 L 215.96,217.31 L 218.29,218.42 L 219.40,218.92 L 221.29,219.59 L 223.50,220.00 L 223.84,220.00 L 224.73,219.77 L 225.20,219.62 L 226.31,219.09 L 226.90,218.80 L 228.22,218.00 L 228.90,217.57 L 230.40,216.52 L 231.17,215.96 L 232.82,214.67 L 233.67,214.00 L 235.45,212.50 L 241.15,207.26 L 241.90,206.54 L 243.20,205.35 L 243.82,204.79 L 244.89,203.94 L 245.40,203.56 L 246.25,203.05 L 246.66,202.83 L 247.31,202.66 L 247.62,202.62 L 248.09,202.78 L 248.30,202.90 L 248.61,203.40 L 248.75,203.69 L 248.91,204.51 L 249.00,206.12 L 249.00,206.68 L 248.73,207.82 L 248.55,208.40 L 247.85,209.68 L 247.44,210.34 L 246.24,211.89 L 243.76,214.66 L 238.53,220.20 L 241.51,222.56 L 242.33,223.21 L 244.50,224.94 L 247.50,227.32 L 248.97,228.50 L 251.64,230.24 L 252.97,231.03 L 255.73,232.13 L 257.17,232.61 L 260.52,233.23 L 261.42,233.36 L 263.41,233.56 L 266.74,233.79 L 267.63,233.83 L 269.18,233.93 L 269.92,233.98 L 271.19,234.09 L 272.39,234.20 L 274.04,234.47 L 274.75,234.62 L 275.55,234.99 L 276.00,235.70 L 276.00,236.00 L 275.56,236.93 L 275.28,237.44 L 274.35,238.68 L 273.84,239.32 L 272.55,240.76 L 271.87,241.49 L 270.33,243.02 L 268.75,244.55 L 265.32,247.39 L 264.47,248.05 L 262.87,249.18 L 260.69,250.47 L 259.25,251.19 L 255.88,252.17 L 254.14,252.58 L 250.46,252.93 L 248.61,253.03 L 244.97,252.74 L 243.19,252.51 M 199.75,200.26 L 199.10,200.21 L 197.91,200.04 L 197.34,199.94 L 196.40,199.70 L 195.96,199.57 L 195.37,199.29 L 195.00,198.87 L 195.00,198.76 L 195.33,198.19 L 195.54,197.86 L 196.25,196.90 L 196.65,196.38 L 197.69,195.09 L 198.25,194.41 L 199.56,192.84 L 200.25,192.03 L 201.78,190.25 L 202.57,189.35 L 204.27,187.42 L 205.99,185.46 L 209.69,181.36 L 211.55,179.32 L 215.18,175.41 L 216.06,174.47 L 217.73,172.71 L 218.55,171.85 L 220.06,170.30 L 220.78,169.56 L 222.06,168.29 L 222.66,167.69 L 223.66,166.76 L 224.11,166.34 L 224.77,165.81 L 225.31,165.52 L 225.59,165.62 L 226.36,165.87 L 226.78,166.00 L 227.80,166.30 L 228.88,166.62 L 231.66,167.41 L 233.13,167.82 L 236.49,168.74 L 238.22,169.21 L 241.88,170.18 L 243.73,170.67 L 247.43,171.63 L 249.27,172.10 L 252.74,172.98 L 254.42,173.40 L 257.40,174.12 L 261.00,174.95 L 262.31,175.24 L 264.87,175.79 L 266.12,176.07 L 268.37,176.56 L 269.44,176.79 L 271.13,177.16 L 272.75,177.53 L 273.53,177.70 L 274.45,178.29 L 274.80,178.62 L 274.87,179.48 L 274.79,179.94 L 274.00,181.04 L 271.87,182.94 L 271.44,183.25 L 270.08,184.38 L 269.34,185.01 L 267.52,186.61 L 261.45,192.18 L 254.16,199.10 L 237.83,200.02 L 233.80,200.24 L 226.39,200.54 L 222.79,200.66 L 216.24,200.75 L 213.06,200.77 L 207.36,200.66 L 204.61,200.58 M 193.51,82.83 L 192.64,82.15 L 191.03,80.16 L 190.26,79.10 L 188.97,76.60 L 188.38,75.31 L 187.56,72.63 L 187.02,68.77 L 187.02,68.09 L 187.16,66.97 L 187.26,66.44 L 187.62,65.62 L 187.82,65.24 L 188.39,64.71 L 188.69,64.49 L 189.47,64.26 L 189.88,64.18 L 190.87,64.25 L 191.39,64.32 L 192.59,64.68 L 193.21,64.90 L 194.63,65.57 L 196.99,66.90 L 198.38,67.75 L 200.91,69.08 L 201.48,69.36 L 202.39,69.73 L 203.27,69.96 L 203.43,69.96 L 203.94,69.54 L 204.22,69.27 L 204.87,68.42 L 205.21,67.95 L 205.93,66.77 L 207.00,64.76 L 207.77,63.16 L 209.35,60.42 L 210.15,59.12 L 211.80,56.94 L 212.64,55.92 L 214.37,54.30 L 217.07,52.46 L 217.63,52.17 L 218.54,51.73 L 218.96,51.53 L 219.59,51.27 L 219.86,51.16 L 220.20,51.08 L 220.33,51.07 L 220.39,51.18 L 220.38,51.25 L 220.14,51.54 L 219.99,51.71 L 219.47,52.18 L 219.17,52.44 L 218.37,53.10 L 216.83,54.30 L 215.38,55.41 L 213.01,57.81 L 211.91,59.05 L 210.25,61.70 L 209.51,63.05 L 208.58,65.93 L 208.00,70.50 L 208.00,71.70 L 207.87,73.40 L 207.76,74.19 L 207.22,75.46 L 206.86,76.10 L 205.59,77.48 L 205.22,77.86 L 204.28,78.72 L 202.56,80.25 L 201.81,80.90 L 200.42,82.09 L 199.75,82.66 L 198.60,83.60 L 198.07,84.04 L 197.30,84.63 L 196.71,85.00 L 196.65,85.00 L 196.32,84.83 L 196.13,84.72 L 195.59,84.36 L 195.01,83.97 M 219.00,79.22 L 217.98,78.72 L 216.22,77.82 L 215.39,77.38 L 213.98,76.60 L 213.32,76.22 L 212.24,75.51 L 211.74,75.17 L 210.94,74.52 L 210.20,73.87 L 209.43,72.61 L 209.03,70.50 L 209.03,69.53 L 209.56,67.20 L 209.89,66.00 L 210.94,63.51 L 211.51,62.28 L 212.88,60.02 L 215.12,57.34 L 216.05,56.50 L 218.45,54.87 L 219.70,54.08 L 222.39,52.73 L 223.73,52.10 L 226.27,51.23 L 226.87,51.06 L 227.97,50.83 L 229.40,50.70 L 229.83,50.71 L 231.24,50.75 L 232.01,50.78 L 233.94,50.85 L 240.50,51.11 L 241.40,51.15 L 242.94,51.20 L 243.68,51.22 L 244.94,51.21 L 246.14,51.20 L 248.00,50.95 L 248.88,50.79 L 250.53,50.18 L 253.39,48.72 L 258.28,45.98 L 257.70,50.87 L 257.62,51.54 L 257.28,53.18 L 257.08,54.04 L 256.54,55.88 L 256.26,56.80 L 255.60,58.62 L 254.56,61.06 L 253.81,62.62 L 252.72,66.06 L 252.49,66.90 L 252.19,68.48 L 252.00,70.56 L 252.00,71.82 L 251.68,73.71 L 251.46,74.55 L 250.67,75.67 L 250.21,76.14 L 248.88,76.54 L 246.24,76.40 L 245.71,76.29 L 244.49,76.28 L 243.84,76.31 L 242.35,76.57 L 241.56,76.73 L 239.76,77.27 L 236.67,78.39 L 234.79,79.15 L 231.43,80.14 L 229.80,80.55 L 226.86,80.85 L 225.43,80.92 L 222.78,80.54 L 221.48,80.27 Z" fill="rgba(244,187,183,1)"/>
</g>
</svg>